<svg width="19" height="20" viewBox="0 0 19 20" fill="none" xmlns="http://www.w3.org/2000/svg">
<g clip-path="url(#clip0_68_165)">
<path d="M19 4.64412C18.9254 0.924163 18.9212 1.72847 18.9934 0.566241C18.9953 0.533274 18.9849 0.500824 18.9643 0.475965C18.9438 0.451106 18.9147 0.435852 18.8836 0.433529C13.6465 0.0544961 13.4479 0.0107615 13.0418 0.0107615C5.89708 0.0107615 9.64802 -0.113404 0.111293 0.481789C0.0801658 0.483735 0.0510244 0.498613 0.0302093 0.523184C0.00939419 0.547756 -0.00140934 0.580032 0.000147694 0.612992C0.61525 13.0929 0.592929 11.0591 0.279914 19.3746C0.278744 19.4036 0.287164 19.4321 0.303724 19.4552C0.320285 19.4784 0.343947 19.4947 0.370635 19.5013C1.08311 19.6798 0.957719 19.6094 2.62301 19.6109C2.62586 19.6109 5.74318 19.2515 5.74603 19.251C5.76076 19.2535 10.057 20 10.0717 20H10.0817C15.1165 19.5536 13.6735 19.6612 16.9215 19.4707L18.829 19.8789C18.8463 19.8827 18.8642 19.8824 18.8814 19.8779C18.8985 19.8734 18.9146 19.865 18.9282 19.8531C18.9419 19.8412 18.9529 19.8263 18.9604 19.8094C18.9679 19.7924 18.9717 19.7739 18.9715 19.7552C18.9283 15.6904 19 4.64412 19 4.64412ZM11.2577 4.34803L11.3176 4.33194L12.677 4.00821C13.1616 3.90029 13.6302 3.72359 14.0702 3.48289C14.5172 3.6709 14.9298 3.94002 15.2894 4.27816C15.34 4.32469 15.3749 4.38731 15.389 4.45664C15.4032 4.52596 15.3958 4.59826 15.3678 4.66272C15.3602 4.69741 15.3512 4.73661 15.3421 4.78387C15.3421 4.78689 15.3421 4.7899 15.3421 4.79342L15.0434 7.26619C14.7479 7.27775 14.7232 7.25362 14.6415 7.17419C14.5952 7.12769 14.5452 7.08544 14.4919 7.048C14.0426 6.72881 12.5725 5.57762 12.1085 5.1815L11.1922 4.40484L11.1993 4.39729C11.2095 4.38631 11.2179 4.37356 11.224 4.35959C11.2346 4.35434 11.2463 4.35046 11.2577 4.34803ZM13.3733 16.7973C13.3463 16.7687 1.96468 3.99916 1.95661 3.98156L2.95075 3.17423L16.8459 12.912C16.7492 13.2668 16.6725 13.6274 16.616 13.9918C16.3841 14.9691 16.0314 15.9099 15.5673 16.7897C14.8648 16.8199 13.4218 16.8144 13.3733 16.7973ZM3.01867 13.3423C3.15041 12.9627 3.3012 12.5909 3.47039 12.2283C4.83874 13.4204 6.11408 14.7273 7.28401 16.1362C6.70516 16.2779 6.13694 16.4646 5.58406 16.6947C4.96659 16.9557 4.38188 17.2035 3.8176 17.0009C3.66409 16.8971 3.52087 16.7772 3.39011 16.643C3.08182 16.3571 2.7515 16.099 2.40262 15.8714C2.03736 15.6431 2.0934 15.6909 3.01962 13.3423H3.01867Z" fill="white"/>
</g>
<defs>
<clipPath id="clip0_68_165">
<rect width="19" height="20" fill="white"/>
</clipPath>
</defs>
</svg>
