<svg width="36" height="39" viewBox="0 0 36 39" fill="none" xmlns="http://www.w3.org/2000/svg">
<mask id="mask0_61_36" style="mask-type:luminance" maskUnits="userSpaceOnUse" x="0" y="4" width="36" height="31">
<path d="M35.3793 4H0V34.0696H35.3793V4Z" fill="white"/>
</mask>
<g mask="url(#mask0_61_36)">
<path d="M35.3793 18.4694V4.23937C35.3793 4.01986 35.114 3.92841 34.9728 4.09302L19.944 23.5175C19.8202 23.6639 19.9263 23.9016 20.1208 23.9016H30.9768C31.2775 23.9016 31.5425 23.7553 31.7194 23.5175L35.1493 19.0913C35.2909 18.9266 35.3793 18.7071 35.3793 18.4694ZM0.229851 19.1095L11.5102 33.7053C11.687 33.9432 11.9699 34.0712 12.2705 34.0712H23.1265C23.321 34.0712 23.4271 33.8515 23.3033 33.7053L0.406657 4.11132C0.265211 3.94671 0 4.03816 0 4.25763V18.4877C0.0176803 18.7071 0.0884048 18.9266 0.229851 19.1095Z" fill="#FA4454"/>
</g>
</svg>
