<svg width="36" height="38" viewBox="0 0 36 38" fill="none" xmlns="http://www.w3.org/2000/svg">
<g clip-path="url(#clip0_68_33)">
<mask id="mask0_68_33" style="mask-type:luminance" maskUnits="userSpaceOnUse" x="0" y="0" width="36" height="38">
<path d="M35.4569 0H0.543091V38H35.4569V0Z" fill="white"/>
</mask>
<g mask="url(#mask0_68_33)">
<path d="M2.64562 11.5781C1.30555 14.0562 0.543091 16.8939 0.543091 19.9116C0.543091 22.9292 1.30555 25.7696 2.64562 28.2476V11.5781Z" fill="#C28F2B"/>
<path d="M18 2.40118C16.5837 2.40118 15.2094 2.57582 13.8907 2.89277V5.64847C15.1966 5.273 16.5735 5.06695 18 5.06695C26.1722 5.06695 32.7981 11.6925 32.7981 19.867C32.7981 23.5483 31.4503 26.9152 29.2263 29.505L28.8044 31.0156L27.8708 34.359C32.4524 31.2033 35.4593 25.9111 35.4593 19.9159C35.4569 10.2404 27.6415 2.40118 18 2.40118Z" fill="#C28F2B"/>
<path d="M13.8907 28.9994H27.2804H27.573C29.839 26.6244 31.2346 23.4086 31.2346 19.867C31.2346 12.5569 25.3105 6.63251 18.0008 6.63251C16.5658 6.63251 15.1863 6.86564 13.8916 7.28563V28.9994H13.8907Z" fill="#C28F2B"/>
<path d="M12.3076 0H2.34692L4.22781 3.91701V34.0857L2.34692 38H25.206L27.2795 30.5869H12.3076V0Z" fill="#C28F2B"/>
</g>
</g>
<defs>
<clipPath id="clip0_68_33">
<rect width="36" height="38" fill="white"/>
</clipPath>
</defs>
</svg>
