<svg width="36" height="46" viewBox="0 0 36 46" fill="none" xmlns="http://www.w3.org/2000/svg">
<g clip-path="url(#clip0_61_53)">
<mask id="mask0_61_53" style="mask-type:luminance" maskUnits="userSpaceOnUse" x="0" y="4" width="36" height="38">
<path d="M36 4H0V42H36V4Z" fill="white"/>
</mask>
<g mask="url(#mask0_61_53)">
<path fill-rule="evenodd" clip-rule="evenodd" d="M13.0146 4.29123C12.5435 4.44863 11.65 4.70545 11.0247 4.86286C10.3993 5.02027 9.39212 5.23567 8.79108 5.34337C7.84893 5.50077 7.62151 5.57533 7.16667 5.84872C6.87426 6.0227 6.36257 6.37065 6.02957 6.62747C5.69657 6.87601 4.92499 7.59676 4.32394 8.20983C3.57669 8.98028 3.04065 9.61821 2.65079 10.2064C2.33403 10.6869 1.91981 11.3579 1.74112 11.6976C1.55431 12.0373 1.28629 12.6006 1.14009 12.9403L0.87206 13.5616C0.790839 32.4753 0.782718 32.6244 0.612155 33.2374C0.52281 33.5771 0.327882 34.157 0.189806 34.5215C0.043609 34.9192 -0.0294895 35.2174 0.0111209 35.2672C0.0598534 35.3168 1.12384 34.4387 2.91882 32.8812C4.47014 31.5225 5.81028 30.3296 5.88336 30.2301C6.0052 30.0728 6.0377 29.6834 6.11078 27.3968C6.16764 25.566 6.16764 24.0747 6.11078 22.5918C6.06206 21.4071 5.97271 19.7833 5.90775 18.988C5.83464 18.1927 5.74529 17.2317 5.7047 16.8506C5.65597 16.4529 5.65597 16.1133 5.69657 16.0222C5.73719 15.9476 6.1839 15.4754 6.68747 14.9783C7.19916 14.4729 7.9951 13.7605 8.46621 13.3794C8.93728 12.9983 9.71699 12.4101 10.2124 12.0787C10.7079 11.739 11.4876 11.2502 11.9587 10.9851C12.4298 10.7283 13.2014 10.3307 13.6887 10.107C14.1841 9.88329 14.574 9.74247 14.5983 9.79218C14.6227 9.8336 14.371 10.1733 14.0542 10.5295C13.7293 10.894 13.2663 11.4988 13.0389 11.8799C12.8034 12.2609 12.4866 12.8657 12.3323 13.2303C12.1699 13.5948 11.9506 14.2493 11.845 14.6801C11.7313 15.1109 11.5607 15.9559 11.4714 16.5441C11.3902 17.1323 11.2683 18.3087 11.2196 19.1537C11.1627 20.0816 11.1465 21.4154 11.179 22.5504C11.2115 23.5777 11.2845 25.044 11.3495 25.8228C11.4145 26.6015 11.5038 28.0347 11.5526 29.0123C11.6013 29.9899 11.6338 31.0503 11.6175 31.3734L11.5932 31.945C2.82948 39.6579 0.295393 41.9364 0.319761 41.9775C0.336004 42.0272 0.63652 41.9943 1.09948 41.8781C1.5137 41.7704 2.48835 41.5633 3.26806 41.4059C4.0478 41.2486 5.08742 41.0579 5.58286 40.9917C6.07832 40.9256 6.82554 40.8261 7.24789 40.7764C7.67023 40.7349 8.6936 40.6355 9.52206 40.5611C10.4155 40.4863 12.4785 40.4119 14.5983 40.3869C16.8076 40.3622 18.9924 40.3787 20.3244 40.4366C21.5102 40.4863 23.224 40.594 24.1418 40.6605C25.0596 40.7349 25.9693 40.7682 26.1723 40.7432C26.3753 40.7102 26.9195 40.5611 27.3906 40.3951C27.8617 40.2378 28.5764 39.9312 28.9744 39.7241C29.3724 39.517 29.9815 39.1608 30.3145 38.929C30.6475 38.6886 31.3299 38.0923 31.8252 37.5869C32.4425 36.9656 32.9056 36.4105 33.2628 35.8472C33.5551 35.3914 33.9288 34.7204 34.0914 34.3559C34.2537 33.9913 34.4812 33.4197 34.5867 33.0883L34.7816 32.4918C34.7816 18.375 34.8142 14.6055 34.8629 14.3072C34.9035 14.0339 35.0336 13.4705 35.1472 13.0646C35.2691 12.6586 35.5047 12.0041 35.6831 11.6148C35.8619 11.2254 36 10.8857 36 10.8443C36 10.8112 35.9755 10.7863 35.9432 10.7863C35.9025 10.7863 34.4892 11.9959 32.7917 13.4871L29.7054 16.1961C29.6242 17.1074 29.5755 18.6401 29.543 20.1893C29.5023 22.0699 29.5105 23.6522 29.5755 24.9529C29.6323 26.0216 29.7298 27.4797 29.7947 28.1839C29.8597 28.888 29.9328 29.6502 29.9572 29.8822L30.0059 30.2964C28.3246 31.9699 27.5287 32.7072 27.1469 33.022C26.7652 33.3286 26.0017 33.8919 25.4413 34.273C24.8809 34.6541 24.0443 35.1677 23.5732 35.4245C23.1022 35.673 22.3468 36.0543 21.892 36.2614C21.4128 36.4767 21.0391 36.6008 21.0148 36.5511C20.9904 36.51 21.1529 36.2364 21.364 35.9466C21.5833 35.6648 21.9163 35.1926 22.1113 34.8944C22.3062 34.5961 22.6392 33.9996 22.8504 33.5688C23.0615 33.138 23.3458 32.4256 23.4839 31.9948C23.622 31.564 23.8331 30.7604 23.9387 30.2136C24.0524 29.6668 24.1905 28.7886 24.2636 28.2667C24.3286 27.7448 24.4179 26.6264 24.4748 25.7813C24.5235 24.9198 24.5398 23.6108 24.5154 22.7989C24.4829 22.0036 24.4423 21.2497 24.4261 21.1171C24.4017 20.9929 24.3529 20.9017 24.3123 20.91C24.2717 20.9266 22.7692 22.219 20.9742 23.7931L17.7091 26.6512L12.5354 21.3491C12.446 20.5124 12.4622 19.7502 12.511 19.1123C12.5678 18.4744 12.6653 17.6376 12.7303 17.2483C12.8034 16.8589 12.9577 16.1795 13.0795 15.7322C13.2014 15.2848 13.3151 14.9286 13.3394 14.9286C13.3638 14.9286 14.3709 16.0304 15.573 17.3725C16.7751 18.7229 17.7903 19.8165 17.8228 19.7999C17.8553 19.7833 21.8351 16.3038 26.6596 12.0704C31.4842 7.83702 35.4072 4.34094 35.3747 4.3078C35.334 4.27466 34.9116 4.4155 34.4163 4.61432C33.9207 4.81315 33.0843 5.1114 32.548 5.27709C32.0121 5.44278 31.0457 5.68303 30.3958 5.81558C29.746 5.94814 28.8363 6.10554 28.3653 6.16353C27.8048 6.2381 26.554 6.27123 24.7103 6.26295C22.3549 6.26295 21.6727 6.22981 20.4462 6.08069C19.6422 5.98128 18.3995 5.79902 17.6848 5.68303L16.3852 5.46763C14.8745 5.81558 13.9973 6.04755 13.4613 6.20496C12.9252 6.36237 12.0643 6.65232 11.5526 6.85115C10.7079 7.18253 10.6104 7.20739 10.4967 7.0914C10.3911 6.97542 10.4155 6.92572 10.781 6.58605C11.0084 6.37893 11.6094 5.89015 12.1292 5.49249C12.6491 5.10311 13.2988 4.63918 13.5668 4.4652C13.843 4.29951 14.0704 4.11725 14.0704 4.07583C14.0704 4.02612 14.0217 3.99298 13.973 4.00127C13.9161 4.00955 13.4856 4.13382 13.0146 4.29123Z" fill="#FF9200"/>
</g>
</g>
<defs>
<clipPath id="clip0_61_53">
<rect width="36" height="38" fill="white" transform="translate(0 4)"/>
</clipPath>
</defs>
</svg>
