<svg width="36" height="38" viewBox="0 0 36 38" fill="none" xmlns="http://www.w3.org/2000/svg">
<g clip-path="url(#clip0_56_19)">
<path d="M2.61139 8.63907C2.38818 8.69512 2.18766 8.82081 2.03779 8.99868C1.84314 9.24394 1.83135 9.28004 1.84314 10.0128C1.85052 10.4341 1.85052 11.1773 1.84314 11.6814C1.83577 12.5842 1.83577 12.5842 1.67357 12.527C1.2651 12.4163 0.832234 12.4464 0.442298 12.6128C0.331704 12.7361 0.331704 12.7361 0.458517 12.691C0.55289 12.6624 0.585333 12.6744 0.561738 12.7361C0.554246 12.7616 0.538092 12.7834 0.516188 12.7978C0.494287 12.8121 0.468079 12.818 0.442298 12.8144C0.39511 12.8038 0.36857 12.9438 0.36857 13.192C0.366314 13.4164 0.351544 13.6404 0.324333 13.8631C0.303301 13.9483 0.305959 14.0377 0.332008 14.1215C0.358055 14.2052 0.40646 14.2798 0.47179 14.337C0.650214 14.5326 0.709195 14.5492 1.24004 14.5492C1.7355 14.5492 1.8225 14.5732 1.85346 14.6801C1.8977 14.8561 1.84609 23.5573 1.80185 23.6777C1.77826 23.7469 1.61163 23.7755 1.29165 23.7755C1.05118 23.7596 0.810591 23.8046 0.59123 23.9064C0.370044 24.0448 0.361196 24.0568 0.353825 24.6587C0.337604 25.8729 0.370044 25.918 1.3005 25.918H1.9213L1.8977 27.382C1.86969 29.4418 1.92572 29.5321 3.35752 29.6148C5.48239 29.7292 11.7051 29.7744 12.727 29.6841C13.0654 29.6563 13.405 29.6468 13.7444 29.6555C14.2237 29.663 14.3416 29.6555 14.4286 29.5697C14.5038 29.508 14.5319 29.508 14.5319 29.5697C14.5314 29.5911 14.5389 29.6118 14.5529 29.6277C14.5668 29.6437 14.5862 29.6536 14.607 29.6555C14.6513 29.6555 14.6822 29.5863 14.6822 29.496C14.6822 29.4057 14.6543 29.3651 14.607 29.3892C14.5599 29.4132 14.5319 29.3967 14.5319 29.3531C14.5319 29.2146 14.7103 29.3079 14.7884 29.4915C14.8666 29.675 14.8828 29.6585 16.5225 29.6585C17.4367 29.6585 18.6916 29.6826 19.3124 29.7036C20.747 29.7973 22.1873 29.7414 23.6108 29.5366C23.6108 29.4749 23.6462 29.4298 23.6934 29.4298C23.7406 29.4298 23.7612 29.4825 23.7288 29.5441C23.7007 29.642 23.7804 29.6585 24.2596 29.6585C24.5678 29.666 26.2739 29.675 28.0552 29.6826C29.8364 29.6901 31.2579 29.675 31.2374 29.6374C31.2166 29.5998 31.261 29.5848 31.3243 29.5848C31.3876 29.5848 31.4186 29.6209 31.3923 29.675C32.1179 29.7699 32.8546 29.7187 33.5613 29.5246C34.0994 29.2507 34.132 29.1364 34.1348 27.4798C34.1252 26.945 34.145 26.41 34.1937 25.8774C34.2217 25.7871 34.281 25.7706 34.4001 25.8082C34.7884 25.8743 35.1859 25.8589 35.5683 25.763C35.6626 25.7014 35.6552 25.6939 35.5444 25.6848C35.4618 25.6848 35.4177 25.6487 35.4413 25.587C35.4649 25.5253 35.509 25.5013 35.5444 25.5088C35.6691 25.0691 35.6986 24.6071 35.6316 24.1546C35.4531 23.8281 35.4252 23.8116 34.7468 23.774L34.0743 23.7378L34.0581 19.1382L34.0345 14.5477H34.6922C35.2983 14.5477 35.3498 14.5311 35.5267 14.3355C35.5931 14.2791 35.6421 14.2045 35.6685 14.1205C35.6946 14.0366 35.6964 13.9467 35.6744 13.8616C35.6452 13.6421 35.6306 13.421 35.63 13.1995C35.63 12.9423 35.6021 12.8023 35.5475 12.8189C35.5208 12.8209 35.4944 12.8135 35.4727 12.7978C35.451 12.7822 35.4351 12.7593 35.428 12.7331C35.4044 12.6714 35.4354 12.6549 35.5313 12.688C35.6508 12.7331 35.6508 12.7241 35.5549 12.6188C35.1806 12.4645 34.7691 12.4304 34.3753 12.521C34.0435 12.6112 34.0153 12.5285 33.9681 11.1548C33.9005 9.0438 33.7456 8.74139 32.7354 8.76998C32.5281 8.78239 32.3202 8.7728 32.1147 8.74139C31.4677 8.6252 30.8117 8.57029 30.155 8.57738C29.9102 8.58492 29.4826 8.58492 29.1965 8.58492C28.9104 8.58492 27.455 8.60145 25.9524 8.60899C24.4498 8.61649 22.9295 8.62853 22.5801 8.64661C22.2306 8.66466 21.8044 8.67517 21.6216 8.67067C18.7565 8.62853 16.381 8.61048 16.2541 8.64208C16.1598 8.66615 16.092 8.7113 16.1067 8.7399C16.1214 8.76846 16.0905 8.80158 16.0477 8.80909C16.0049 8.81663 15.974 8.77901 15.974 8.73236C15.974 8.68572 15.6171 8.64208 14.4626 8.64208C13.3079 8.64208 12.9585 8.66767 12.9614 8.73236C12.9644 8.79706 12.9334 8.83015 12.867 8.83015C12.8007 8.83015 12.7712 8.80158 12.7918 8.76096C12.8789 8.62853 12.3996 8.60145 9.03462 8.60145C7.16635 8.60145 5.04148 8.58492 4.31602 8.57286C3.74722 8.52748 3.17516 8.54968 2.61139 8.63907ZM17.6211 10.7034C27.7263 10.72 31.0707 10.6959 31.0707 10.6342C31.0707 10.5725 31.0943 10.5725 31.1297 10.6342C31.2542 10.7172 31.4016 10.7573 31.5499 10.7485L31.9186 10.7726L31.9261 11.1533C31.9422 11.7551 32.0365 17.924 32.0291 18.0534C32.0055 18.7034 32.0291 23.6054 32.0645 25.3147C32.1504 26.06 32.1355 26.8138 32.0204 27.5551C31.8184 27.5943 31.612 27.6065 31.4069 27.5912C30.8613 27.5671 28.8662 27.5671 21.219 27.5746C17.2524 27.5821 16.7378 27.5987 16.7747 27.698C16.8116 27.7973 16.7673 27.8123 16.6715 27.8123C16.5756 27.8123 16.5373 27.7762 16.5682 27.698C16.5992 27.6198 16.1406 27.5912 12.8552 27.5912C10.7909 27.5987 8.50083 27.6198 7.75324 27.6438C7.30668 27.6835 6.85749 27.681 6.41137 27.6363C6.41137 27.546 6.15481 27.5746 6.05454 27.6724C5.9867 27.7416 5.94393 27.7506 5.90706 27.6889C5.59457 27.5891 5.26564 27.5543 4.93975 27.5866C4.61451 27.5934 4.28923 27.5758 3.96654 27.534C3.90531 27.3218 3.88231 27.1 3.8987 26.8795C3.8987 26.3679 3.88246 26.2776 3.78812 26.3152C3.69374 26.3529 3.67751 26.3077 3.67751 26.2084C3.67751 26.1091 3.71289 26.07 3.78812 26.1016C3.86332 26.1332 3.8987 25.8007 3.90754 23.3783C3.93556 14.2573 3.93556 14.3641 3.83234 14.3265C3.77335 14.3024 3.75715 14.2738 3.80876 14.2407C3.92821 13.8073 3.93631 13.3498 3.83234 12.9122C3.77934 12.7959 3.76888 12.664 3.80286 12.5405C3.85221 12.2311 3.87734 11.9182 3.87806 11.6047C3.88541 11.1382 3.89429 10.7215 3.89429 10.6598C3.89429 10.5981 3.9459 10.574 4.03289 10.6237C4.11988 10.6733 10.2158 10.6883 17.6166 10.6974L17.6211 10.7034Z" fill="#FC9000"/>
<path d="M27.8089 12.6262L26.2371 12.6428L25.9421 12.9332C25.8378 13.0166 25.7537 13.1233 25.6961 13.2451C25.6386 13.3669 25.6093 13.5006 25.6104 13.6358C25.5244 14.7529 25.519 15.8748 25.5941 16.9926C25.6296 17.8548 25.6531 18.6928 25.6384 18.8614C25.6237 19.0299 25.6104 20.4307 25.6104 21.9894L25.603 24.8106L25.7814 25.1115C25.8839 25.2769 26.0253 25.4135 26.1928 25.5087C27.4064 25.648 28.6308 25.6601 29.8468 25.5448C30.0351 25.474 30.1999 25.3504 30.3225 25.1884C30.445 25.0263 30.5204 24.8323 30.5399 24.6285C30.6151 23.8882 30.5841 18.255 30.5045 18.0428L30.4219 17.8382H29.4089C29.0399 17.8004 28.6672 17.831 28.3089 17.9285C28.2229 18.1929 28.1932 18.473 28.2218 18.75V19.4813L28.443 19.6121L28.6642 19.7506L28.6716 20.6052C28.6716 21.0792 28.6716 21.8405 28.6642 22.3144C28.6381 22.6464 28.6635 22.9805 28.7394 23.3045C28.7702 23.3559 28.7871 23.4147 28.7884 23.475C28.7897 23.5352 28.7753 23.5948 28.7468 23.6475C28.6716 23.8521 28.6642 23.8521 28.1142 23.8236C27.4845 23.795 27.3769 23.7453 27.4845 23.5949C27.5671 23.488 27.604 18.1572 27.5362 15.652L27.5008 14.4257L28.0316 14.3972C28.8235 14.361 28.8146 14.352 28.8146 14.8997C28.7989 15.0922 28.8287 15.2857 28.9016 15.4639C28.9695 15.5332 28.9695 15.5542 28.9016 15.5542C28.7394 15.5542 28.8072 15.7663 28.9842 15.807C29.4456 15.8548 29.9113 15.8315 30.3659 15.7378C30.4289 15.3034 30.4605 14.8649 30.4603 14.4257L30.4883 13.1754L30.2818 12.9633C30.1034 12.7797 29.9501 12.718 29.4546 12.6368C29.4118 12.6142 28.6642 12.6142 27.8089 12.6262ZM6.71224 12.7767C6.60653 13.2901 6.58366 13.8176 6.64443 14.3385C6.66801 16.0477 6.66063 15.9168 6.74762 15.7739C6.80661 15.6836 6.82284 15.7047 6.82284 15.8642C6.82284 15.971 6.78743 16.0763 6.73582 16.0929C6.68421 16.1094 6.64883 16.4449 6.64883 17.2288C6.64145 18.1812 6.62525 18.3573 6.51467 18.4717C6.40406 18.586 6.38048 18.7455 6.38048 19.4481C6.36068 19.7166 6.37806 19.9866 6.43209 20.2501C6.4999 20.1809 6.7491 20.4171 6.7491 20.551C6.7491 20.6037 6.72552 20.6488 6.69749 20.6488C6.63061 21.4222 6.60306 22.1986 6.61491 22.9749C6.60756 24.2539 6.63114 25.3011 6.65917 25.3011C6.68716 25.3011 6.76239 25.3868 6.80661 25.4937C6.88919 25.6772 6.91722 25.6862 7.62648 25.6862C8.71914 25.6862 8.65869 25.8247 8.63951 23.0487C8.62328 21.8345 8.61148 20.8083 8.59528 20.7677C8.5127 20.4412 8.55249 20.4246 9.60093 20.4246C10.7364 20.4246 11.164 20.3389 11.4176 20.065L11.5872 19.8724L11.6108 16.5623C11.6569 15.4086 11.6373 14.2531 11.5518 13.1017C11.366 12.7496 11.1684 12.721 8.91525 12.697C8.18104 12.6332 7.44195 12.6589 6.71373 12.7737L6.71224 12.7767ZM9.62451 14.5943C9.6319 14.6725 9.6319 15.485 9.64074 16.4088C9.64959 17.3327 9.66433 18.0233 9.67615 17.9495C9.73512 17.7208 9.84569 17.8111 9.84569 18.1C9.84569 18.3212 9.82211 18.3663 9.72627 18.3287C9.63041 18.2911 9.62305 18.3212 9.65108 18.419C9.6791 18.5168 9.64369 18.5499 9.19987 18.5258C8.99622 18.5267 8.7949 18.482 8.61003 18.3949C8.49057 18.2715 8.48319 18.0519 8.59379 18.0519C8.6792 17.4741 8.69109 16.8874 8.62917 16.3065C8.61297 15.3451 8.61297 14.5356 8.63656 14.516C8.80663 14.476 8.98138 14.4608 9.15561 14.4709C9.55524 14.4739 9.62451 14.495 9.62451 14.5943ZM13.0278 12.7421C12.9112 13.3432 12.9288 13.9634 13.0795 14.5566C13.1237 14.5491 13.1664 14.5928 13.1664 14.6545C13.1664 14.7162 13.1222 14.7613 13.0795 14.7447C13.0116 14.7372 12.9762 14.8591 12.96 15.1329C12.9438 15.4519 12.96 15.5301 13.0352 15.485C13.1104 15.4399 13.1104 15.4489 13.0514 15.5377C12.932 15.6972 12.8538 24.3351 12.9644 24.8467C12.9803 24.9575 13.0178 25.0638 13.0748 25.1595C13.1318 25.2551 13.2071 25.3381 13.2962 25.4034L13.541 25.599L15.4771 25.5704C17.6344 25.5418 17.7892 25.5012 18.0222 25.0348C18.2729 22.586 18.3365 20.121 18.2124 17.6622C18.1962 15.8386 18.1844 14.024 18.1844 13.6434C18.2144 13.3855 18.1861 13.1241 18.1018 12.879C18.0919 12.8723 18.0807 12.8679 18.069 12.8661C18.0572 12.8643 18.0452 12.8651 18.0338 12.8685C18.0224 12.872 18.0119 12.8779 18.003 12.886C17.9941 12.8941 17.9871 12.904 17.9824 12.9151C17.947 13.046 17.8202 13.0295 17.8202 12.891C17.8202 12.8008 17.7008 12.7767 17.1906 12.7767C16.1775 12.7767 16.2527 12.5239 16.2601 16.0387C16.2675 17.6622 16.2881 19.4481 16.3117 19.9958C16.3471 20.7195 16.3353 21.0099 16.2763 21.0099C16.1421 21.0099 16.182 21.3003 16.3279 21.3816C16.4149 21.4433 16.4311 21.4794 16.3633 21.52C16.2664 21.8793 16.2291 22.2525 16.2527 22.6244C16.2291 23.5076 16.2085 23.6912 16.1053 23.8055C16.0021 23.9199 15.9667 23.9364 15.8752 23.8055C15.7858 23.7317 15.6762 23.6878 15.5615 23.6797C15.4467 23.6716 15.3323 23.6998 15.2338 23.7604C15.0126 23.8747 14.7826 23.6535 14.8416 23.3797C14.8932 23.151 14.9286 16.8226 14.8932 14.5281L14.8651 12.9588L14.5481 12.7827C14.3343 12.6593 14.1795 12.6157 14.0895 12.6593C13.8105 12.7221 13.5211 12.7195 13.2431 12.6518C13.2028 12.6523 13.1631 12.6613 13.1263 12.6781C13.0895 12.6949 13.0565 12.7193 13.0293 12.7496L13.0278 12.7421ZM19.6059 12.7346C19.5121 13.8169 19.5027 14.9052 19.5779 15.9891C19.6132 16.2549 19.6186 16.5239 19.5941 16.791C19.5593 16.9987 19.5648 17.2114 19.6104 17.4169C19.7047 17.5403 19.6103 17.8216 19.4762 17.8216C19.4172 17.8216 19.3891 17.8578 19.4083 17.8999C19.4275 17.942 19.401 18.0308 19.3405 18.0955C19.1964 18.51 19.1809 18.9597 19.2963 19.3834C19.322 19.4079 19.3421 19.4378 19.3551 19.4711C19.3681 19.5044 19.3737 19.5403 19.3714 19.576C19.3684 19.609 19.3746 19.6421 19.3892 19.6717C19.4038 19.7012 19.4263 19.7259 19.454 19.743C19.5723 20.5714 19.6015 21.4104 19.5411 22.2452C19.5115 23.1029 19.5342 23.9617 19.6089 24.8166C19.6442 24.8617 19.6442 24.9234 19.6162 24.94C19.569 25.0508 19.5567 25.1738 19.5808 25.2921L19.6089 25.6035L21.5804 25.5794C24.5177 25.5554 24.3467 25.772 24.3555 22.018C24.3555 19.4963 24.3481 19.3804 24.208 19.2255C23.7657 18.7304 23.7126 18.6372 23.832 18.5709C24.127 18.4039 24.2007 18.0519 24.2154 16.9069C24.2228 16.305 24.239 15.1901 24.2508 14.4453C24.2744 13.1664 24.267 13.0791 24.1166 12.9407C23.8866 12.703 23.543 12.6593 21.5405 12.6503C20.8957 12.5884 20.2455 12.6188 19.6089 12.7406L19.6059 12.7346ZM22.3693 14.4754C22.4327 15.4378 22.4327 16.4034 22.3693 17.3658C22.3619 17.9225 22.325 17.9541 21.7721 17.8608L21.455 17.8156L21.4108 17.1536C21.3872 16.785 21.3665 16.4389 21.3592 16.3772C21.3518 16.3155 21.3828 15.8416 21.4108 15.324L21.4624 14.3926H21.89C22.0554 14.3751 22.2223 14.4064 22.3707 14.4829L22.3693 14.4754ZM22.3383 19.8348C22.3901 20.2675 22.4098 20.7036 22.3973 21.1393C22.3973 21.8104 22.4047 22.6725 22.4047 23.0607C22.4218 23.3176 22.4099 23.5755 22.3693 23.8296C22.0539 23.917 21.7195 23.8985 21.4152 23.7769C21.3326 23.7077 21.3208 23.6174 21.3636 23.4083C21.4202 22.7695 21.4428 22.1282 21.4314 21.4869C21.4314 20.068 21.4477 19.8318 21.5509 19.7581C21.6803 19.7115 21.8182 19.6949 21.9546 19.7095C22.0911 19.7241 22.2226 19.7695 22.3398 19.8424L22.3383 19.8348Z" fill="#FC9000"/>
</g>
<defs>
<clipPath id="clip0_56_19">
<rect width="36" height="38" fill="white"/>
</clipPath>
</defs>
</svg>
